<svg xmlns="http://www.w3.org/2000/svg" viewBox="0 0 800 600" fill="none">
  <!-- Dorset county outline (simplified shape) -->
  <path d="M 100,300 L 150,250 L 200,200 L 280,180 L 350,170 L 420,180 L 500,200 L 580,230 L 650,270 L 700,320 L 720,380 L 700,440 L 650,480 L 580,500 L 500,510 L 420,500 L 350,480 L 280,460 L 220,430 L 170,390 L 130,350 L 100,300 Z" 
        stroke="currentColor" stroke-width="2" fill="currentColor" opacity="0.1"/>
  
  <!-- Coastline detail -->
  <path d="M 100,300 Q 120,320 150,310 T 200,320 T 250,340 L 280,360 L 320,390 L 350,410 L 400,430 L 450,450 L 500,460 L 550,465 L 600,460 L 650,450 L 700,420" 
        stroke="currentColor" stroke-width="1" opacity="0.3" fill="none"/>
</svg>
